PathFileType	4	(X/Y/Z)	C:/Users/opensim2020/Desktop/walking_exp_matlab/subject02_walking14_straight_03.trc																																																																																																																									
DataRate	CameraRate	NumFrames	NumMarkers	Units	OrigDataRate	OrigDataStartFrame	OrigNumFrames																																																																																																																					
100	100	4	41	mm	100	1270	127																																																																																																																					
Frame#	Time	LFHD			RFHD			LBHD			RBHD			C7			T10			CLAV			STRN			RBAK			LSHO			LUPA			LELB			LFRM			LWRA			LWRB			LFIN			RSHO			RUPA			RELB			RFRM			RWRA			RWRB			RFIN			LASI			RASI			LPSI			RPSI			LTHI			LKNE			LTIB			LANK			LHEE			LTOE			RTHI			RKNE			RTIB			RANK			RHEE			RTOE			*39			*40		
		X1	Y1	Z1	X2	Y2	Z2	X3	Y3	Z3	X4	Y4	Z4	X5	Y5	Z5	X6	Y6	Z6	X7	Y7	Z7	X8	Y8	Z8	X9	Y9	Z9	X10	Y10	Z10	X11	Y11	Z11	X12	Y12	Z12	X13	Y13	Z13	X14	Y14	Z14	X15	Y15	Z15	X16	Y16	Z16	X17	Y17	Z17	X18	Y18	Z18	X19	Y19	Z19	X20	Y20	Z20	X21	Y21	Z21	X22	Y22	Z22	X23	Y23	Z23	X24	Y24	Z24	X25	Y25	Z25	X26	Y26	Z26	X27	Y27	Z27	X28	Y28	Z28	X29	Y29	Z29	X30	Y30	Z30	X31	Y31	Z31	X32	Y32	Z32	X33	Y33	Z33	X34	Y34	Z34	X35	Y35	Z35	X36	Y36	Z36	X37	Y37	Z37	X38	Y38	Z38	X39	Y39	Z39	X40	Y40	Z40	X41	Y41	Z41
																																																																																																																												
32	0.31	-427.44006	1737.91553	1530.21729	-420.22266	1722.23352	1673.9519	-557.81451	1662.54272	1529.73254	-563.28143	1645.53577	1672.39441	-610.58398	1526.7406	1609.04297	-671.89624	1254.85938	1634.73303	-475.45209	1455.63306	1587.08447	-428.86682	1281.70264	1594.48303	-668.20398	1358.51367	1688.45337	-558.80896	1496.25232	1425.04407	-588.05408	1296.25671	1347.11487	-595.44507	1154.08398	1336.0531	-570.02338	1022.0155	1330.97595	-493.87134	911.48932	1362.14099	-542.57159	902.40961	1337.52502	-512.17969	846.37561	1328.81812	-520.83734	1500.8125	1785.5376	-540.2121	1321.73669	1892.26135	-520.57153	1179.06982	1926.93652	-477.56836	1067.84424	1952.12988	-414.85278	947.70056	1939.12085	-459.07431	940.50085	1974.36572	-411.49457	886.37061	1981.52075	-483.20212	981.57446	1478.20227	-441.49698	980.49835	1731.07446	-670.8374	1035.21655	1591.56824	-657.56366	1041.99182	1705.76306	-497.79916	668.88916	1435.38525	-478.72296	491.05194	1459.88586	-618.87396	379.59329	1486.27991	-744.64966	199.31752	1528.96252	-775.54303	194.04373	1590.0293	-657.59094	76.9673	1491.60327	-505.4494	675.81299	1817.62415	-510.79373	464.93033	1783.38892	-561.24622	283.54608	1805.35669	-596.02783	91.03134	1778.552	-642.47614	35.51666	1734.21033	-444.92419	36.28066	1768.83826	-524.57166	1804.49573	1623.88	2845.9856	1034.35828	-3357.05493
33	0.32	-415.1525	1738.4679	1529.255	-407.06689	1723.06604	1673.00415	-545.51746	1663.1698	1529.78796	-550.33789	1646.45435	1672.18933	-597.68793	1527.54138	1610.0658	-659.28168	1256.02893	1637.21936	-462.78549	1456.50098	1587.005	-416.44846	1282.53711	1594.74231	-654.80054	1359.76929	1690.61829	-547.69727	1496.7196	1425.83252	-579.69415	1297.37866	1347.54932	-588.51233	1155.63892	1336.13489	-567.06024	1023.1344	1328.58191	-493.29306	909.95258	1357.60962	-543.08472	903.13202	1333.23828	-514.1637	845.95081	1323.47034	-506.07861	1502.47778	1785.32935	-522.39825	1323.7356	1893.20886	-500.61417	1181.1521	1927.79614	-455.61902	1070.41663	1952.24719	-391.26651	951.30481	1938.13647	-434.93134	943.46844	1974.12195	-386.42004	890.0929	1980.44531	-469.69382	984.86713	1481.12805	-429.74112	981.1615	1733.09058	-658.36578	1036.39368	1592.46057	-644.97833	1042.31531	1706.73962	-480.21732	672.6178	1433.95227	-456.02164	494.14627	1458.98938	-591.61768	376.55096	1485.47498	-709.06549	190.64757	1528.72742	-740.03467	183.73653	1589.94238	-615.97198	73.53429	1490.44995	-499.66492	675.35236	1817.97107	-507.69696	464.52597	1783.76025	-559.45526	283.51221	1805.60571	-595.66144	91.1735	1778.43652	-642.39404	35.67694	1733.93909	-444.93393	36.18023	1768.9408	-511.68564	1805.30371	1623.36487	2845.31519	1034.27979	-3360.35449
34	0.33	-402.76154	1738.59912	1528.19385	-393.86267	1723.62964	1671.93872	-533.14624	1663.44287	1529.7926	-536.97491	1647.1073	1672.48755	-584.78912	1528.04858	1610.99731	-646.53101	1256.77722	1639.52112	-450.07596	1456.9657	1586.93591	-403.9783	1283.00757	1595.04224	-641.01959	1360.74768	1692.78613	-536.52533	1496.72119	1426.53625	-571.23444	1298.1106	1347.96594	-582.13489	1156.87915	1335.8407	-563.99091	1024.12817	1326.52612	-493.02994	908.33728	1352.77014	-543.54083	903.23688	1328.6864	-516.00128	845.28741	1318.12146	-491.34863	1503.84448	1785.23853	-504.50732	1325.55664	1894.07385	-480.65704	1182.88574	1928.53833	-433.70438	1072.85742	1952.20752	-367.99225	954.57916	1936.78235	-410.7561	946.14642	1973.59167	-361.5358	893.40179	1978.91455	-455.71094	987.46655	1483.95044	-418.00406	981.42059	1735.24512	-645.70251	1037.25525	1593.07458	-632.46729	1042.35913	1707.46497	-462.61798	676.05664	1432.54102	-433.74594	496.81927	1457.81714	-564.20587	372.53961	1484.11963	-672.59808	181.25496	1528.07861	-702.84991	172.14474	1589.29431	-573.02881	69.84222	1488.99353	-492.90793	675.30438	1817.81934	-504.06381	463.91599	1784.09253	-556.9328	283.35071	1805.70557	-595.24298	91.35794	1778.32654	-642.49329	36.07939	1733.65991	-444.9689	35.93721	1768.84106	-498.62161	1805.87207	1622.90112	2846.24512	1034.31848	-3357.35498
35	0.34	-390.42014	1738.42957	1527.04138	-380.62543	1723.86108	1670.82715	-520.74432	1663.33704	1529.67493	-523.91803	1647.36365	1672.13782	-571.82153	1528.24316	1611.8302	-633.89844	1257.25513	1641.60242	-437.3046	1457.08728	1586.83887	-391.36838	1283.2063	1595.52893	-627.81549	1361.75513	1695.10608	-525.20941	1496.1925	1427.10791	-562.10687	1298.12048	1348.40747	-575.59833	1157.61792	1335.43005	-561.18994	1024.73022	1323.79822	-492.85843	906.47064	1347.84863	-543.66229	903.17926	1324.59888	-517.65106	844.65466	1313.21252	-476.68036	1504.80457	1785.09607	-486.67981	1327.08765	1895.14453	-460.84518	1184.42383	1929.25757	-411.7998	1074.9895	1951.92798	-344.24115	957.86273	1935.51453	-386.60117	948.5675	1972.87048	-336.48245	896.49591	1977.27942	-441.76917	989.41876	1486.54675	-406.31528	981.13373	1737.34485	-633.28589	1037.91077	1593.37842	-620.04865	1042.32715	1707.8717	-444.70734	679.04694	1431.28174	-412.03174	499.09396	1456.37292	-536.86432	367.7554	1482.23193	-635.37701	171.18161	1526.85217	-664.90088	160.1194	1588.02991	-529.76477	66.20853	1486.65442	-485.67905	674.87292	1818.00256	-500.10526	463.31323	1784.28259	-554.08673	283.12573	1805.6134	-594.61969	91.45428	1778.21399	-642.02173	36.10864	1733.1991	-444.81458	35.7823	1768.87219	-485.70767	1806.09302	1622.18506	2846.13184	1034.2356	-3357.26001
